<?xml version="1.0" encoding="utf-8"?>
<!-- Generator: Adobe Illustrator 27.9.0, SVG Export Plug-In . SVG Version: 6.00 Build 0)  -->
<svg version="1.1" id="Layer_1" xmlns="http://www.w3.org/2000/svg" xmlns:xlink="http://www.w3.org/1999/xlink" x="0px" y="0px"
	 width="1272px" height="1168px" viewBox="0 0 1272 1168" style="enable-background:new 0 0 1272 1168;" xml:space="preserve">
<style type="text/css">
	
		.st0{clip-path:url(#SVGID_00000084488020157346450560000014430319921439002546_);fill:url(#SVGID_00000035490424226162707540000011142792374417380511_);}
	
		.st1{clip-path:url(#SVGID_00000144333665544725256520000004255886316285617292_);fill:url(#SVGID_00000042727289979161132770000013168315896263165844_);}
	.st2{fill:#FFC100;}
	.st3{fill:#0050B2;}
</style>
<g>
	<g>
		<g>
			<g>
				<defs>
					<path id="SVGID_1_" d="M520.6,697.2l-0.8-98.1c26.1-1.5,52.1-2.5,78.2-3v368.2c-53-56.6-101.3-127.3-135.8-198.9l-70.3,41.9
						c-47.5-52.5-87.1-111.4-119.7-178.8c26.1-4.7,52.3-8.9,78.6-12.7c15.7,30.1,32.8,58.7,51.9,85.4l25.4-14.8
						c-9.3-25.4-18-51.3-25.6-77.3c27.1-3.2,54.2-5.7,81.6-7.8c10,34.1,21,66.9,33.1,97.7L520.6,697.2z M672.5,596
						c26.3,0.4,52.5,1.5,79,3v213.1c40-30.9,77.1-70.8,99.8-96.8c29-33.5,54.9-68.2,71.8-99.4c25.6,3.6,51.3,7.8,76.7,12.3
						c-57.4,118.6-201.5,271.4-327.1,336L672.5,596L672.5,596z M51.6,657.8c-10.8,4.4-18.4,5.5-22.2,8.7c-1.1,0.8-1.5,2.3-1.3,3.6
						c0.2,1.1,1.3,2.1,2.1,2.5c6.8,3.8,20.3,9.5,46,16.3c16.3,4.2,35.4,8.3,57.4,12.1c-6.4-12.5-12.5-25.2-18.4-38.1
						c23.5-6.1,47-11.9,70.6-17.2c6.1,13.1,12.9,26.3,20.1,39.8l0,0c18.6,34.7,40.7,70.3,67.2,105.9
						C406.4,972.9,582.1,1061,635,1088.1c53-27.1,228.6-115.3,362.1-296.6c36.7-49.4,65.3-98.9,87.5-146.2
						c23.5,5.3,47.2,11,70.8,17.2c-5.9,13.1-12.3,26.1-18.6,38.8c22.2-3.8,41.9-7.8,58.7-12.3c26.3-6.8,39.4-12.1,46.6-16.5
						c1.3-0.8,2.1-2.1,1.9-3.6c0-1.1-0.6-2.1-1.5-2.8c-3.6-2.8-11.7-4.7-22.2-8.7c-190.7-56.8-387.5-85.2-584.3-85.2
						C439.1,572.7,242.3,601.1,51.6,657.8"/>
				</defs>
				<clipPath id="SVGID_00000057137473376228138900000009034736878864988826_">
					<use xlink:href="#SVGID_1_"  style="overflow:visible;"/>
				</clipPath>
				
					<linearGradient id="SVGID_00000135678311396432247220000014464099529647656120_" gradientUnits="userSpaceOnUse" x1="-322.1105" y1="120.2764" x2="-319.2981" y2="120.2764" gradientTransform="matrix(432.4092 0 0 -432.4092 139311.6094 52839.1406)">
					<stop  offset="0" style="stop-color:#4047FF"/>
					<stop  offset="1" style="stop-color:#04006C"/>
				</linearGradient>
				
					<rect x="28.1" y="572.7" style="clip-path:url(#SVGID_00000057137473376228138900000009034736878864988826_);fill:url(#SVGID_00000135678311396432247220000014464099529647656120_);" width="1216.1" height="515.7"/>
			</g>
		</g>
	</g>
	<g>
		<g>
			<g>
				<defs>
					<path id="SVGID_00000008852802038544454060000011263610877159649925_" d="M199,418.4c20.1-23.5,40.9-44.5,61.7-63.1
						c10.6,48.1,23.1,93.4,37.7,136.2c-25,4.2-50,8.9-75,14C214.5,477.8,206.2,448.7,199,418.4 M347.1,289.8
						c27.3-17.2,53.8-31.4,79-42.6c4.4,76.1,13.6,151.9,27.3,224.4c-27.3,2.5-54.7,5.5-81.8,9.1
						C360.3,420.1,352.2,356.8,347.1,289.8 M517,214.4c27.3-7,54-11.7,81.1-14.4v263.6c-26.3,0.4-52.8,1.5-79,3L517,214.4z
						 M672.5,463.6V200.2c39.4,1.7,77.8,7.8,114.6,17.6c64,17.8,107.8,39.8,136.4,58.1c47.5,30.1,80.1,65.3,80.1,104.9
						c0,27.8-6.1,51.1-34.7,82.6c20.6,10,35.4,21.2,44.5,35.2c-64.2-12.1-128.6-21-193.2-26.7l32-17.2c50.6-26.5,66.9-53,66.9-71.4
						c0-51.1-128-91.5-167.6-91.5v175C725.1,465,698.8,464.2,672.5,463.6 M266.6,176.7V236l-79,42.8v59.3l-79.9,42.8
						c3.8,26.3,11.7,80.5,33.1,149.4c324.6-80.9,664.2-81.1,988.8-0.4c21.2-68.6,29-122.9,32.8-148.9l-79.7-42.8v-59.3l-79-42.8
						v-59.3C894.4,124.6,773.8,90.3,635,71.8C496.7,90.3,376.2,124.6,266.6,176.7"/>
				</defs>
				<clipPath id="SVGID_00000119088530072687801320000007586414872122928775_">
					<use xlink:href="#SVGID_00000008852802038544454060000011263610877159649925_"  style="overflow:visible;"/>
				</clipPath>
				
					<linearGradient id="SVGID_00000109021122862023836320000016261636607181022643_" gradientUnits="userSpaceOnUse" x1="-321.9905" y1="120.77" x2="-319.1784" y2="120.77" gradientTransform="matrix(375.1169 0 0 -375.1169 120891.8125 45603.9102)">
					<stop  offset="0" style="stop-color:#4047FF"/>
					<stop  offset="1" style="stop-color:#04006C"/>
				</linearGradient>
				
					<rect x="107.7" y="71.8" style="clip-path:url(#SVGID_00000119088530072687801320000007586414872122928775_);fill:url(#SVGID_00000109021122862023836320000016261636607181022643_);" width="1054.9" height="458.5"/>
			</g>
		</g>
	</g>
	<path class="st2" d="M1268.5,672.7L1268.5,672.7v-81.4c0-18.4-18.4-27.8-69.7-43c15.7-50.8,27.1-103.4,34.5-157.6l6.8-49.2l-86-46
		v-59.1l-79-42.8v-61.9l-40.7-19.3C919.2,57.4,791.6,20.8,644.8,1.3L635.3,0l-9.5,1.3c-147,19.5-274.4,56.4-389.6,111.2l-40.7,19.3
		v61.9l-79,42.8v59.1l-86.2,46.2l6.8,49.2c7.6,54.4,19.1,107.2,34.7,158c-53.8,15.7-68.2,23.9-68.2,42.6c0,27.1,0,54.2,0,81.4l0,0
		c0,0.2,0,0.4,0,0.6c0,19.9,53.6,38.1,143,52.5c20.6,37.3,43.4,73.5,69.1,108.1c96.6,130.7,227.1,237.7,387.9,318l31.8,15.9
		l31.8-15.9c160.6-80.3,291.1-187.3,387.9-318c25.4-34.5,48.5-70.6,68.9-107.8c90.5-14.4,144.7-32.8,144.7-52.8
		C1268.5,673.3,1268.5,672.9,1268.5,672.7 M187.6,338.1v-59.3l79-42.8v-59.3c109.3-52.1,229.9-86.4,368.6-104.9l0,0
		c0.2,0,0.6,0,0.8,0c8.5,1.1,16.7,2.3,25,3.6c0.8,0,1.7,0.2,2.5,0.4c7.6,1.3,15.5,2.3,22.9,3.6c0.2,0,0.4,0,0.8,0
		c41.7,7,81.6,15.5,120.3,25.6c2.3,0.6,4.4,1.3,6.8,1.9c5.5,1.5,11,3,16.3,4.4c0.6,0.2,1.3,0.4,1.7,0.4c7,2.1,14,4,21,6.1
		c1.7,0.4,3.4,1.1,5.1,1.5c5.7,1.9,11.7,3.6,17.4,5.5c1.9,0.6,3.8,1.3,5.5,1.9c12.9,4.2,25.8,8.9,38.3,13.6
		c3.6,1.3,7.2,2.8,10.8,4.2c3.6,1.3,7.2,2.8,10.6,4c21.4,8.5,42.2,17.6,62.7,27.5v59.3l79,42.8v59.3l79.9,42.8
		c-1.3,8.1-2.8,19.1-5.1,32.2c-0.8,5.3-1.9,11-3,16.9c-1.3,7.2-3,14.8-4.7,23.1c-0.4,2.5-1.1,4.9-1.7,7.4
		c-4.7,20.8-10.6,43.9-18.4,69.3l0,0c-182-45.3-368.6-65-554.9-59.5c-0.6,0-1.3,0-1.7,0c-9.7,0.2-19.7,0.6-29.4,1.3
		c-0.4,0-1.1,0-1.5,0c-8.9,0.4-18,0.8-26.9,1.5c-1.3,0-2.8,0-4.2,0.2c-8.9,0.6-17.8,1.3-26.7,1.9c-1.5,0-2.8,0.2-4.2,0.2
		c-8.3,0.6-16.5,1.3-24.8,2.1c-2.1,0.2-4.2,0.2-6.4,0.4c-8.3,0.8-16.3,1.5-24.6,2.5c-2.1,0.2-4.2,0.4-6.6,0.6
		c-7.6,0.8-15,1.7-22.7,2.5c-2.8,0.2-5.5,0.6-8.3,1.1c-7.4,0.8-14.8,1.9-22.2,3c-2.8,0.4-5.7,0.6-8.7,1.1c-7,1.1-14,1.9-20.8,3
		c-3.4,0.4-6.8,1.1-10.2,1.5c-7.8,1.3-15.7,2.5-23.5,3.8c-2.3,0.4-4.9,0.8-7.2,1.3c-7.6,1.3-15.3,2.5-22.9,4
		c-2.5,0.4-5.3,0.8-7.8,1.3c-7.4,1.3-14.8,2.8-22.5,4.2c-2.8,0.6-5.5,1.1-8.3,1.5c-7,1.3-14.2,3-21,4.4c-3.2,0.6-6.4,1.3-9.5,1.9
		c-7.8,1.7-15.5,3.4-23.1,5.3c-2.5,0.6-5.1,1.1-7.4,1.7c-7.6,1.7-15.3,3.6-22.7,5.5c-2.5,0.6-5.3,1.3-7.8,1.9
		c-21.4-68.9-29.2-123.3-33.1-149.4L187.6,338.1z M1242,672.7c-7.2,4.4-20.6,9.7-46.6,16.5c-16.7,4.2-36.4,8.5-58.7,12.3
		c6.6-12.7,12.9-25.6,18.6-38.8c-23.5-6.1-47-11.9-70.8-17.2c-22.2,47-50.6,96.8-87.5,146.2c-4.2,5.7-8.5,11.2-12.7,16.7
		c-0.4,0.6-0.8,1.3-1.3,1.7c-1.7,2.1-3.4,4.2-5.1,6.6c-0.6,0.6-1.1,1.3-1.7,2.1c-1.5,1.9-3.2,4-4.9,5.9c-3.2,4-6.6,7.8-9.7,11.9
		c-3.2,4-6.6,7.8-10,11.7c-0.6,0.8-1.5,1.7-2.1,2.5c-1.5,1.7-3,3.4-4.4,5.1c-0.4,0.4-0.8,1.1-1.3,1.5c-1.7,1.9-3.6,4-5.3,5.9
		c-0.4,0.4-1.1,1.1-1.5,1.5c-1.7,1.9-3.6,3.8-5.3,5.7c-0.2,0.2-0.6,0.6-0.8,0.8c-1.9,2.1-4,4.2-5.9,6.4c-1.3,1.3-2.3,2.5-3.6,3.6
		c-1.1,1.1-2.1,2.3-3.2,3.4c-1.3,1.3-2.3,2.5-3.6,3.6c-1.1,1.1-2.1,2.1-3.2,3.2c-1.3,1.3-2.3,2.3-3.4,3.4s-2.3,2.3-3.4,3.4
		c-0.8,0.8-1.5,1.5-2.3,2.3c-1.5,1.5-3,2.8-4.4,4.2c-0.2,0.2-0.2,0.2-0.4,0.4c-2.1,2.1-4.2,4-6.4,5.9c-0.4,0.4-1.1,1.1-1.5,1.5
		c-1.7,1.7-3.6,3.2-5.3,4.9l-0.2,0.2c-2.1,1.9-4.2,4-6.4,5.9c-0.4,0.4-0.8,0.6-1.3,1.1c-1.9,1.7-3.8,3.4-5.5,5.1
		c-0.8,0.8-1.7,1.5-2.5,2.3c-1.3,1.3-2.8,2.3-4,3.6c-1.1,0.8-1.9,1.7-3,2.5c-1.3,1.1-2.5,2.3-3.8,3.4c-0.6,0.6-1.3,1.3-2.1,1.7
		c-1.5,1.3-3,2.5-4.7,4c-0.6,0.6-1.3,1.3-2.1,1.7c-1.5,1.3-3.2,2.5-4.7,4c-0.6,0.4-1.3,1.1-1.7,1.3c-1.7,1.3-3.4,2.8-4.9,4
		c-0.8,0.6-1.5,1.3-2.3,1.9c-1.5,1.3-3,2.3-4.4,3.6c-0.8,0.6-1.5,1.3-2.3,1.9c-1.3,1.3-2.8,2.3-4.2,3.4c-1.3,1.1-2.5,1.9-3.8,3
		c-0.8,0.6-1.7,1.5-2.8,2.1c-1.3,0.8-2.3,1.9-3.6,2.8c-1.1,0.8-1.9,1.5-3,2.3c-0.8,0.6-1.9,1.3-2.8,2.1c-1.3,1.1-2.5,1.9-3.8,2.8
		c-0.6,0.4-1.3,1.1-2.1,1.5c-1.5,1.1-3,2.1-4.4,3.4c-0.6,0.4-1.3,0.8-1.9,1.3c-1.5,1.1-3,2.3-4.4,3.4c-1.1,0.6-2.1,1.5-3,2.1
		c-1.1,0.8-2.3,1.5-3.4,2.3c-0.8,0.6-1.7,1.3-2.5,1.9c-1.3,0.8-2.3,1.7-3.6,2.5c-0.8,0.6-1.7,1.3-2.5,1.7c-1.3,0.8-2.5,1.7-3.6,2.5
		c-0.4,0.2-0.8,0.6-1.3,0.8c-1.5,1.1-3.2,2.3-4.9,3.4c-0.4,0.2-0.8,0.6-1.3,0.8c-1.5,1.1-3.2,2.1-4.7,3.2c-0.8,0.4-1.5,1.1-2.3,1.5
		c-1.3,0.8-2.5,1.7-3.8,2.5c-0.8,0.6-1.7,1.3-2.5,1.7c-1.1,0.6-2.3,1.5-3.4,2.1c-0.8,0.4-1.5,1.1-2.3,1.5c-1.3,0.8-2.3,1.5-3.6,2.3
		c-0.4,0.2-0.8,0.6-1.3,0.8c-1.5,1.1-3,1.9-4.4,2.8c-0.6,0.4-1.3,0.8-1.9,1.3c-1.3,0.8-2.5,1.5-3.8,2.3c-1.1,0.6-1.9,1.3-3,1.9
		c-0.8,0.6-1.7,1.1-2.5,1.7c-0.8,0.4-1.5,1.1-2.3,1.5c-1.1,0.6-2.1,1.3-3.2,1.9c-0.6,0.4-1.3,0.6-1.9,1.1c-1.3,0.6-2.3,1.5-3.6,2.1
		c-0.4,0.2-0.8,0.6-1.3,0.8c-1.3,0.8-2.5,1.5-4,2.3c-0.6,0.4-1.3,0.8-2.1,1.3c-1.1,0.6-2.1,1.3-3,1.7c-0.4,0.2-1.1,0.6-1.5,0.8
		c-1.3,0.6-2.3,1.3-3.6,2.1c-0.6,0.2-1.3,0.6-1.7,1.1c-1.1,0.6-2.1,1.3-3.2,1.9c-0.4,0.2-0.8,0.4-1.3,0.6c-1.3,0.6-2.5,1.3-3.6,2.1
		c-0.2,0.2-0.6,0.2-0.8,0.4c-1.3,0.6-2.5,1.5-3.8,2.1c-0.6,0.2-1.3,0.6-1.7,1.1c-1.1,0.4-1.9,1.1-2.8,1.5c-0.6,0.4-1.3,0.8-2.1,1.1
		c-0.8,0.4-1.5,0.8-2.3,1.3c-0.8,0.4-1.5,0.8-2.3,1.3c-0.6,0.4-1.3,0.8-2.1,1.3c-0.6,0.2-1.1,0.6-1.5,0.8c-0.8,0.4-1.7,1.1-2.5,1.3
		c-2.3,1.3-4.4,2.3-6.6,3.6c-0.4,0.2-0.8,0.4-1.3,0.6c-1.1,0.4-1.9,1.1-2.8,1.5c-0.2,0.2-0.6,0.2-0.8,0.4c-1.1,0.6-2.1,1.1-3.2,1.7
		c0,0-0.2,0-0.4,0.2c-3,1.5-5.9,3-8.7,4.4c-3.4,1.7-6.6,3.4-9.1,4.7c0,0-0.2,0-0.2,0.2c-53-27.1-228.6-115.3-362.1-296.6
		c-26.5-35.6-48.5-71.2-67.2-105.9l0,0c-1.7-3.4-3.6-6.6-5.3-10c0,0,0,0,0-0.2c-1.7-3.2-3.2-6.4-4.9-9.3c0-0.2-0.2-0.4-0.4-0.8
		c-1.5-2.8-2.8-5.7-4.2-8.5c-0.2-0.4-0.4-1.1-0.8-1.5c-1.5-3.2-3-6.4-4.7-9.5c-23.5,5.3-47,11-70.6,17.2
		c5.9,12.9,12.1,25.6,18.4,38.1c-21.8-3.8-40.9-7.8-57.4-12.1c-25.6-6.6-39.2-12.5-46-16.3c-0.8-0.4-1.9-1.7-2.1-2.5
		c-0.2-1.3,0.2-2.8,1.3-3.6c3.6-3.2,11.2-4.2,22-8.7c39.4-11.9,79-22.2,119.1-31.6l0,0c0.8-0.2,1.7-0.4,2.5-0.6
		c8.3-1.9,16.5-3.8,24.8-5.5c1.5-0.2,3-0.6,4.4-1.1c7.6-1.7,15-3.2,22.5-4.9c1.1-0.2,2.1-0.4,3-0.6l0,0c0.4,0,1.1-0.2,1.3-0.2
		c8.3-1.7,16.7-3.4,25-4.9c1.9-0.4,3.8-0.6,5.7-1.1c8.1-1.5,16.1-3,24.2-4.4c0.4,0,0.8-0.2,1.3-0.2l0,0h0.2
		c9.7-1.7,19.7-3.4,29.2-4.9c1.5-0.2,3-0.4,4.4-0.6c9.3-1.5,18.9-2.8,28.2-4.2c1.7-0.2,3.6-0.4,5.3-0.8c9.3-1.3,18.9-2.5,28.2-3.8
		c1.5-0.2,3.2-0.4,4.7-0.6c9.7-1.3,19.5-2.3,29.2-3.4c0.6,0,1.3,0,2.1-0.2c9.7-1.1,19.3-1.9,29-3c1.1,0,2.1-0.2,3.2-0.2
		c9.5-0.8,19.3-1.7,29-2.5c1.7,0,3.4-0.2,5.1-0.4c9.3-0.6,18.9-1.3,28.4-1.9c1.7,0,3.4-0.2,5.3-0.2c9.5-0.6,19.1-1.1,28.8-1.5
		c0.4,0,0.8,0,1.3,0c0,0,0,0,0.2,0c1.1,0,2.1,0,3.2,0c7.6-0.2,15.3-0.6,22.7-0.8c1.5,0,3,0,4.4,0c8.5-0.2,16.9-0.4,25.2-0.6
		c0.8,0,1.5,0,2.3,0c0,0,0.2,0,0.4,0c1.1,0,2.1,0,3.2,0c8.3,0,16.5-0.2,24.8-0.2c0.4,0,0.8,0,1.3,0c8.5,0,17.2,0,25.6,0.2
		c1.1,0,2.1,0,3.2,0h0.2c0.8,0,1.7,0,2.5,0c9.3,0,18.9,0.4,28.4,0.6c1.7,0,3.4,0,4.9,0.2c9.7,0.2,19.5,0.6,29,1.1c0.8,0,1.9,0,2.8,0
		c9.5,0.4,19.3,1.1,28.8,1.5c0.8,0,1.7,0,2.5,0.2c9.7,0.6,19.5,1.3,29,2.1c1.7,0,3.2,0.2,4.9,0.4c9.3,0.8,18.9,1.5,28.4,2.5
		c1.7,0.2,3.6,0.2,5.3,0.4c9.5,0.8,19.1,1.9,28.6,3c1.3,0.2,2.8,0.2,4,0.4c10,1.1,19.9,2.3,29.9,3.6c0.2,0,0.2,0,0.4,0
		c10,1.3,19.7,2.5,29.7,4c0.8,0,1.7,0.2,2.5,0.4c0.2,0,0.2,0,0.4,0c0.4,0,0.8,0,1.3,0.2c8.3,1.3,16.7,2.5,25,3.8
		c1.9,0.2,3.8,0.6,5.7,0.8c8.1,1.3,16.1,2.5,24.2,4c0.4,0,0.8,0,1.3,0.2c0.2,0,0.4,0,0.6,0l0,0c8.5,1.5,16.9,3,25.2,4.7
		c1.9,0.4,4,0.8,5.9,1.1c8.3,1.5,16.5,3.2,24.8,4.9c0.2,0,0.6,0,1.1,0.2c0.2,0,0.4,0,0.4,0c1.1,0.2,1.9,0.4,3,0.6
		c7.4,1.5,14.8,3,22.2,4.7c1.9,0.4,3.6,0.8,5.5,1.3c8.1,1.7,16.3,3.6,24.4,5.5c0.8,0.2,1.5,0.2,2.3,0.4l0,0l0,0
		c40.5,9.3,80.5,19.9,120.3,31.8c10.6,4,18.6,5.7,22.2,8.7c0.8,0.6,1.5,1.7,1.5,2.8C1244.2,670.8,1243.3,672,1242,672.7"/>
	<path class="st2" d="M298.4,490.9c-14.4-42.8-26.9-88.1-37.7-136.2c-21,18.6-41.5,39.6-61.7,63.1c7.4,30.3,15.5,59.1,24.4,86.9
		C248.4,499.8,273.4,494.9,298.4,490.9"/>
	<path class="st2" d="M598,463.1V199.8c-27.1,2.5-53.8,7.2-81.1,14.4l1.9,252.1C545.4,464.6,571.7,463.6,598,463.1"/>
	<path class="st2" d="M453.5,471c-13.8-72.5-22.9-148.3-27.3-224.4c-25,11.2-51.7,25.2-79,42.6c5.1,66.9,13.1,130.3,24.6,190.7
		C398.8,476.5,426.1,473.5,453.5,471"/>
	<path class="st2" d="M751.6,291.1c39.4,0,167.6,40.5,167.6,91.5c0,18.4-16.3,44.7-66.9,71.4l-32,17.2
		c64.6,5.9,129.2,14.8,193.2,26.7c-9.1-14-23.9-25.2-44.5-35.2c28.6-31.6,34.7-54.7,34.7-82.6c0-39.4-32.6-74.6-80.1-104.9
		C895,257,851.1,235,787.2,217.2c-36.7-10-75.2-15.9-114.6-17.6v263.6c26.3,0.4,52.5,1.5,79,3L751.6,291.1L751.6,291.1z"/>
	<path class="st2" d="M520.6,696.6l-3.4,1.9c-12.3-30.9-23.3-63.6-33.1-97.7c-27.3,2.1-54.4,4.7-81.6,7.8
		c7.8,26.3,16.1,51.9,25.6,77.3l-25.4,14.8c-19.1-26.9-36.4-55.3-51.9-85.4c-26.3,3.8-52.5,7.8-78.6,12.7
		c32.6,67.4,72.2,126.3,119.7,179l70.1-41.9c34.3,71.6,82.6,142.4,135.8,198.9V595.5c-26.1,0.4-52.1,1.5-78.2,3L520.6,696.6z"/>
	<path class="st2" d="M851.1,714.8c-22.7,26.1-59.5,65.7-99.8,96.8V598.5c-26.3-1.5-52.5-2.5-79-3v368.2
		C798,899.1,942,746.4,999.5,627.7c-25.4-4.7-51.1-8.7-76.7-12.3C906.2,646.6,880.2,681.4,851.1,714.8"/>
	<path class="st3" d="M152,614.4c-5.1-23.7-10-47.2-15-71c4-1.1,8.3-2.1,12.3-3c3,15.5,6.1,30.9,9.3,46.4c3-16.9,6.1-33.9,9.1-50.6
		c3.8-0.8,7.4-1.7,11.2-2.5c3,15.5,6.1,30.9,9.1,46.6c3.2-16.9,6.4-33.7,9.3-50.6c4-0.8,7.8-1.7,11.9-2.5
		c-5.1,26.1-10.2,51.9-15.3,78c-4,0.8-8.1,1.7-12.1,2.5c-3-15.3-5.9-30.3-8.9-45.6c-3,16.5-5.9,33.1-8.9,49.6
		C160.1,612.5,156,613.6,152,614.4"/>
	<path class="st3" d="M225.9,523.5c5.3-1.1,10.8-2.1,16.1-3.2c5.1,23.9,10,47.9,15,71.8c-4,0.8-8.3,1.5-12.3,2.3
		c-0.8-4.4-1.7-9.1-2.5-13.3c-5.5,1.1-11,2.1-16.5,3.2c-0.8,4.9-1.7,9.7-2.5,14.4c-4,0.8-7.8,1.7-11.9,2.5
		C216.2,575.2,221.1,549.4,225.9,523.5 M227.8,572.2c4-0.8,8.1-1.5,12.1-2.3c-2.1-10.4-4-20.6-6.1-30.7
		C231.9,550.2,229.8,561.2,227.8,572.2"/>
	<path class="st3" d="M279.3,588.1c-4,0.6-8.1,1.3-12.1,2.1v-74.8c3.8-0.6,7.6-1.3,11.2-1.9c4-0.6,7.6-0.8,11-0.2s6.1,1.5,8.7,3.2
		c2.5,1.5,4.2,3.8,5.7,6.4c1.3,2.5,2.1,5.7,2.1,9.3c0,4.4-0.8,8.5-2.8,12.1c-1.9,3.6-4.4,6.8-7.6,9.5c4.2,9.7,8.7,19.7,13.1,29.7
		c-4.4,0.6-8.9,1.5-13.3,2.1c-3.4-8.1-6.8-16.3-10.4-24.4c-0.6,0.4-1.5,0.8-2.1,1.3s-1.3,0.6-2.1,1.1c-0.4,0.2-0.8,0.4-1.3,0.6
		L279.3,588.1L279.3,588.1z M293.9,533.9c0-3.2-1.3-5.7-3.6-7.4c-2.5-1.7-6.1-2.3-10.8-1.5v26.5c0.6-0.2,1.3-0.6,1.7-1.1
		c4-2.1,7.2-4.4,9.3-7.2C292.9,540.5,293.9,537.5,293.9,533.9"/>
	<path class="st3" d="M319.8,581.6v-74.8c4-0.6,7.8-1.3,11.9-1.7c6.6,14.4,12.9,29,19.5,43.6v-46.4c4-0.6,7.8-1.1,11.9-1.5v74.8
		c-4,0.4-7.8,1.1-11.9,1.5c-6.6-14.6-12.9-29-19.5-43.6v46.4C327.6,580.3,323.6,580.9,319.8,581.6"/>
	<path class="st3" d="M378.5,573.3v-74.8c11.9-1.5,23.7-2.8,35.6-4c-0.8,4-1.5,7.8-2.3,11.9c-7,0.8-14.2,1.5-21.2,2.3v18.6
		c5.9-0.6,11.9-1.3,17.6-2.1v11.9c-5.9,0.6-11.9,1.3-17.6,2.1v21c7.8-0.8,15.7-1.9,23.5-2.5v11.7
		C402.2,570.5,390.3,571.8,378.5,573.3"/>
	<path class="st3" d="M439.1,566.7c-4,0.4-8.1,0.8-12.1,1.3c0-25,0-49.8,0-74.8c3.8-0.4,7.6-0.8,11.4-1.1c4-0.4,7.6-0.2,11,0.4
		c3.4,0.6,6.4,1.9,8.7,3.8c2.5,1.7,4.2,4,5.7,6.8c1.3,2.8,2.1,5.9,2.1,9.5c0,4.4-0.8,8.5-2.8,11.9c-1.9,3.4-4.4,6.4-7.6,8.9
		c4.4,10.2,8.9,20.3,13.1,30.5c-4.4,0.4-8.9,0.6-13.3,1.1c-3.4-8.5-7-16.9-10.4-25.2c-0.6,0.4-1.5,0.6-2.1,1.1s-1.5,0.6-2.1,0.8
		c-0.4,0.2-0.8,0.4-1.3,0.6L439.1,566.7L439.1,566.7z M453.7,513.6c0-3.2-1.3-5.9-3.8-7.8c-2.5-1.9-6.1-2.8-11-2.5v26.5
		c0.6-0.2,1.3-0.6,1.9-0.8c4-1.7,7.2-4,9.5-6.6C452.6,520.1,453.7,517.2,453.7,513.6"/>
	<path class="st3" d="M548,534.7c0,3.6-0.8,6.8-2.3,10c-1.5,3-3.6,5.7-6.4,8.1c-2.8,2.3-5.9,4-10,5.5c-3.8,1.5-8.1,2.3-12.9,2.5
		c-3.6,0.2-7,0.4-10.6,0.6v-74.8c3.4-0.2,6.8-0.4,10.4-0.6c8.1-0.4,14.4,1.1,19.5,4.4c4.9,3.4,7.2,8.1,7.2,14c0,2.5-0.6,4.9-1.9,7.2
		c-1.3,2.5-3,4.7-5.3,6.6c3.8,1.1,6.6,3.2,8.7,5.9C546.7,527.3,548,530.7,548,534.7 M531,506.1c0-2.8-1.3-4.9-3.6-6.4
		s-5.5-2.3-9.5-2.3v20.8c0.6-0.2,1.3-0.4,1.9-0.4c3.6-0.8,6.4-2.3,8.3-4.4C530.2,511,531,508.7,531,506.1 M521.7,528.2
		c-1.3,0.4-2.5,0.6-3.6,1.1v20.1c5.3-0.2,9.3-1.7,12.7-4.2c3.4-2.5,5.1-5.9,5.1-9.7c0-3.4-1.3-5.7-4.2-7
		C528.9,527.1,525.5,527.1,521.7,528.2"/>
	<path class="st3" d="M571.3,558.5c-4,0-8.1,0.2-12.1,0.4v-74.8c3.8,0,7.6-0.2,11.4-0.4c4,0,7.8,0.2,11,1.3c3.4,1.1,6.4,2.3,8.7,4.2
		c2.3,1.9,4.2,4.2,5.7,7.2c1.3,2.8,2.1,6.1,2.1,9.7c0,4.4-0.8,8.3-2.8,11.7c-1.9,3.4-4.4,6.1-7.6,8.5c4.4,10.6,8.9,21,13.1,31.6
		c-4.4,0-8.9,0.2-13.3,0.2c-3.4-8.7-7-17.2-10.4-25.8c-0.6,0.2-1.5,0.6-2.1,0.8c-0.6,0.2-1.5,0.4-2.1,0.8c-0.4,0.2-0.8,0.2-1.3,0.4
		L571.3,558.5L571.3,558.5z M586.1,506.6c0-3.2-1.3-5.9-3.8-7.8c-2.5-2.1-6.1-3.2-11-3.2V522c0.6-0.2,1.3-0.4,1.9-0.6
		c4-1.5,7.2-3.6,9.5-5.9C584.8,512.9,586.1,510,586.1,506.6"/>
	<path class="st3" d="M632.1,558.5c-7.4,0-13.1-3.2-17.4-9.5c-4.2-6.4-6.4-15.9-6.4-28.8c0-12.9,2.1-22.5,6.4-28.8
		c4.2-6.6,10-9.7,17.2-9.7c7.2,0,13.1,3.2,17.2,9.7c4.2,6.6,6.4,16.1,6.4,28.8c0,12.9-2.1,22.2-6.4,28.8
		C645.2,555.3,639.5,558.5,632.1,558.5 M632.1,547c3.6,0,6.4-2.3,8.3-6.6c2.1-4.4,3-11,3-19.9s-1.1-15.7-3-20.1
		c-2.1-4.4-4.9-6.8-8.3-6.8c-3.6,0-6.4,2.3-8.3,6.8c-2.1,4.4-3,11.2-3,20.1c0,8.9,1.1,15.7,3,19.9C625.9,544.7,628.7,547,632.1,547"
		/>
	<path class="st3" d="M667.7,501.5c0-2.8,0.4-5.3,1.5-7.6c1.1-2.3,2.3-4.2,4-5.9c1.7-1.7,3.6-3,5.9-3.8s4.7-1.3,7.4-1.3
		c4.4,0,8.5,1.5,11.9,4c3.4,2.5,5.9,6.6,7.6,12.1c-3.4,1.9-7,4-10.4,5.9c-0.8-3-2.1-5.5-3.6-7.4c-1.5-1.9-3.4-2.8-5.9-3
		c-1.9,0-3.4,0.6-4.7,1.9c-1.1,1.3-1.7,2.8-1.7,4.7c0,1.9,0.6,4,1.7,5.7c1.3,1.9,3,3.8,5.3,5.5c2.5,2.1,5.3,4,8.1,6.1
		c3.8,3,6.8,6.1,8.7,9.5c1.9,3.4,2.8,7,2.8,11c0,3-0.4,5.5-1.5,8.1s-2.5,4.7-4.4,6.4c-1.9,1.7-4,3.2-6.6,4c-2.5,0.8-5.1,1.5-7.8,1.3
		c-5.1,0-9.5-1.7-13.1-4.7c-3.8-3-6.6-7.4-8.3-13.3c3.4-1.9,6.8-4,10.2-5.9c1.1,3.8,2.5,6.6,4.2,8.9c1.9,2.1,4.2,3.4,7.4,3.4
		c2.3,0,4.2-0.6,5.7-2.3c1.5-1.5,2.1-3.4,2.1-5.5c0-2.3-0.6-4.4-2.1-6.6c-1.5-2.1-3.2-3.8-5.3-5.5c-3-2.3-5.9-4.7-8.9-6.8
		c-3.8-3-6.6-6.1-7.8-9.3C668.5,508,667.7,504.9,667.7,501.5"/>
	<path class="st3" d="M718.9,560c-1.7,0-3.2-0.8-4.4-2.1s-1.9-2.8-1.9-4.4c0-1.7,0.6-3.2,1.9-4.2c1.3-1.1,2.8-1.7,4.4-1.7
		s3.2,0.8,4.4,2.1s1.9,2.8,1.9,4.4s-0.6,3.2-1.9,4.4C722.1,559.5,720.6,560.2,718.9,560"/>
	<path class="st3" d="M765.1,561.9c-4-0.2-8.1-0.4-12.1-0.8v-74.8c3.8,0.2,7.6,0.4,11.4,0.6c4,0.2,7.8,1.1,11.4,2.3
		c3.6,1.3,6.6,3,9.1,5.3s4.4,4.9,5.9,7.8c1.3,3,2.1,6.4,2.1,10.2c0,3.8-0.6,7-1.9,9.7c-1.3,2.8-3,5.3-5.3,7.2
		c-2.3,2.1-5.1,3.8-8.3,5.3c-3.2,1.3-6.6,2.5-10.4,3.4c-0.6,0.2-1.3,0.4-1.9,0.4L765.1,561.9L765.1,561.9z M781,511.9
		c0-3.6-1.3-6.6-4-8.9c-2.5-2.3-6.6-3.8-11.9-4.2v27.8c0.8-0.2,1.5-0.4,2.3-0.6c4.2-1.3,7.6-3,10-5.3
		C779.7,518.4,781,515.5,781,511.9"/>
	<path class="st3" d="M805.8,565c0-25,0-49.8,0-74.8c4,0.4,8.1,0.6,12.1,1.1v74.8C813.9,565.7,809.8,565.3,805.8,565"/>
	<path class="st3" d="M832.1,530.1c0-12.9,2.1-22.2,6.4-28.2s10-8.7,17.2-7.8c4.7,0.4,8.9,2.5,12.3,5.7c3.6,3.2,6.1,7.8,7.8,14
		c-3.4,1.9-7,3.8-10.4,5.7c-0.8-4-2.3-7.4-3.8-9.7c-1.7-2.3-3.6-3.6-5.9-3.8c-3.4-0.4-6.1,1.5-8.1,5.7c-1.9,4.2-3,10.6-3,19.5
		c0,8.9,1.1,15.5,3,20.1c1.9,4.7,4.7,7,8.1,7.4c2.3,0.2,4.2-0.6,5.9-2.5c1.7-1.9,3-4.9,3.8-8.9c3.4,2.8,7,5.3,10.4,8.1
		c-1.7,5.5-4.4,9.5-7.8,12.1c-3.4,2.5-7.6,3.6-12.3,3c-7.2-0.8-12.9-4.7-17.2-11.4C834.2,552.8,832.1,542.8,832.1,530.1"/>
	<path class="st3" d="M909,576.3c-4-0.6-8.1-1.1-12.1-1.5v-63.1c-4.9-0.6-9.5-1.3-14.4-1.9v-11.7c13.6,1.7,27.1,3.4,40.7,5.3V515
		c-4.9-0.6-9.5-1.3-14.4-1.9v63.1H909z"/>
	<path class="st3" d="M962.8,561.4v-51.7c4,0.6,8.1,1.3,12.1,1.9v51.7c0,7.6-1.9,13.1-5.7,16.7c-3.8,3.6-8.9,4.7-15.3,3.8
		c-6.1-1.1-11.2-3.8-15-8.5c-3.8-4.7-5.7-10.8-5.7-18.6v-51.7c4,0.6,8.1,1.3,12.1,1.9v51.7c0,3.8,0.8,7,2.3,9.3
		c1.5,2.5,3.8,3.8,6.6,4.2c2.8,0.4,5.1-0.2,6.6-2.1C962.2,568.2,962.8,565.5,962.8,561.4"/>
	<path class="st3" d="M1002,591.3c-4-0.6-8.1-1.5-11.9-2.1v-74.8c3.8,0.6,7.6,1.3,11.2,2.1c4,0.6,7.6,1.9,11,3.6
		c3.4,1.7,6.1,3.8,8.7,6.1s4.2,5.3,5.5,8.3c1.3,3.2,2.1,6.6,2.1,10.2c0,4.4-0.8,8.1-2.8,11c-1.9,3-4.2,5.3-7.6,6.8
		c4.2,11.4,8.7,22.9,13.1,34.1c-4.4-0.8-8.9-1.7-13.1-2.5c-3.4-9.3-6.8-18.6-10.4-28.2c-0.6,0.2-1.3,0.2-2.1,0.4
		c-0.6,0-1.3,0.2-2.1,0.2c-0.4,0-0.8,0-1.3,0.2L1002,591.3L1002,591.3z M1016.6,542.2c0-3.2-1.3-6.1-3.6-8.7
		c-2.5-2.5-6.1-4.4-10.8-5.5v26.5c0.6,0,1.3-0.2,1.7-0.2c4-0.6,7.2-1.9,9.3-4C1015.6,548.5,1016.6,545.8,1016.6,542.2"/>
	<path class="st3" d="M1042.2,598.9v-74.8c11.9,2.3,23.5,4.9,35.2,7.6c-0.8,3.6-1.5,7.4-2.3,11c-7-1.5-14-3-21-4.4V557
		c5.7,1.3,11.7,2.5,17.4,3.8v11.9c-5.7-1.3-11.7-2.5-17.4-3.8V590c7.8,1.7,15.5,3.4,23.3,5.1v11.7
		C1065.8,603.8,1054.1,601.5,1042.2,598.9"/>
	<path class="st3" d="M1088.9,552.8c0-2.8,0.4-5.3,1.5-7.4c1.1-2.1,2.3-3.8,4-5.1c1.7-1.3,3.6-2.1,5.9-2.5c2.3-0.4,4.7-0.4,7.2,0.2
		c4.4,1.1,8.3,3.2,11.4,6.6s5.7,7.8,7.4,13.8c-3.4,1.3-6.8,2.5-10.2,3.8c-0.8-3.2-1.9-5.9-3.4-8.3c-1.5-2.1-3.4-3.6-5.9-4.2
		c-1.9-0.4-3.4,0-4.4,0.8c-1.1,1.1-1.7,2.5-1.7,4.2c0,1.9,0.6,4,1.7,6.1c1.3,2.1,3,4.2,5.3,6.6c2.5,2.5,5.3,5.3,7.8,7.8
		c3.8,3.8,6.6,7.6,8.5,11.2c1.9,3.6,2.8,7.6,2.8,11.7c0,3-0.4,5.5-1.5,7.8c-1.1,2.3-2.5,4-4.2,5.5c-1.9,1.3-4,2.3-6.4,2.8
		s-5.1,0.4-7.6-0.2c-5.1-1.3-9.3-3.6-12.9-7.2c-3.6-3.8-6.4-8.7-8.1-15c3.4-1.3,6.6-2.5,10-3.8c1.1,4,2.5,7.2,4.2,9.7
		c1.7,2.5,4.2,4.2,7.2,4.9c2.3,0.6,4.2,0.2,5.5-1.1c1.5-1.3,2.1-3,2.1-5.1c0-2.3-0.6-4.7-2.1-6.8c-1.3-2.3-3.2-4.4-5.3-6.8
		c-3-3-5.7-5.7-8.7-8.7c-3.8-3.8-6.4-7.4-7.8-11C1089.7,559.5,1088.9,556.1,1088.9,552.8"/>
</g>
</svg>
